# xmcd
#
# Track frame offsets:
#	150
#	18977
#	29970
#	44707
#	58135
#	71920
#	82862
#	103505
#	118180
#	127587
#	139605
#	151372
#	161955
#	180697
#	194655
#	210922
#	222807
#	235527
#	247860
#	259540
#
# Disc length: 3613 seconds
#
# Revision: 1
# Processed by: cddbd v1.5.1PL2 Copyright (c) Steve Scherf et al.
# Submitted via: EasyCDDAExtractor 7.0.5.1
#
DISCID=1a0e1b14
DTITLE=Various Artist - Make The World Go Away
DYEAR=1994
DGENRE=Pop
TTITLE0=Chas and Dave - Ain't No Pleasing You
TTITLE1=The Bachelors - Whispering
TTITLE2=Petula Clark - This Is My Song
TTITLE3=Joe Dolan - Make Me An Island
TTITLE4=Rose Marie - Make The World Go Away
TTITLE5=Jimmy Justice - When My Little Girl Is Smiling
TTITLE6=Gladys Knight and The Pips - Medley: Try To Remember, The Way We Were
TTITLE7=Lena Martell - One Day At The Time
TTITLE8=Miki and Griff - A Little Bitty Tear
TTITLE9=Gary Miller - The Story Of My Life
TTITLE10=Millican and Nesbitt - Vaya Con Dios
TTITLE11=The Overlanders - Michelle
TTITLE12=David Parton - Isn't She Lovely
TTITLE13=Pickettywitch - (It's Like A) Sad Old Kinda Movie
TTITLE14=Gene Pitney - Something's Gotten Hold Of My Heart
TTITLE15=Sandie Shaw - (There's) Always Something There To Remind Me
TTITLE16=Jimmy Young - Too Young
TTITLE17=Lonnie Donegan - The Party's Over
TTITLE18=Jerry Butler - Moon River
TTITLE19=Marie Knight - Cry Me A River
EXTD=
EXTT0=
EXTT1=
EXTT2=
EXTT3=
EXTT4=
EXTT5=
EXTT6=
EXTT7=
EXTT8=
EXTT9=
EXTT10=
EXTT11=
EXTT12=
EXTT13=
EXTT14=
EXTT15=
EXTT16=
EXTT17=
EXTT18=
EXTT19=
PLAYORDER=
